<svg width="330" height="83" viewBox="0 0 330 83" fill="none" xmlns="http://www.w3.org/2000/svg">
<path d="M111.311 61.5615H125.835V66H105.752V34.0078H111.311V61.5615ZM145.137 66C144.902 65.5459 144.697 64.8062 144.521 63.7808C142.822 65.5532 140.742 66.4395 138.281 66.4395C135.893 66.4395 133.945 65.7583 132.436 64.396C130.928 63.0337 130.173 61.3491 130.173 59.3423C130.173 56.8081 131.111 54.8672 132.986 53.5195C134.875 52.1572 137.571 51.4761 141.072 51.4761H144.346V49.916C144.346 48.6855 144.001 47.7041 143.313 46.9717C142.624 46.2246 141.577 45.8511 140.171 45.8511C138.955 45.8511 137.959 46.1587 137.182 46.7739C136.406 47.3745 136.018 48.1436 136.018 49.0811H130.679C130.679 47.7773 131.111 46.5615 131.975 45.4336C132.839 44.291 134.011 43.3975 135.491 42.7529C136.985 42.1084 138.647 41.7861 140.478 41.7861C143.262 41.7861 145.481 42.4893 147.136 43.8955C148.791 45.2871 149.641 47.25 149.685 49.7842V60.5068C149.685 62.6455 149.985 64.3521 150.586 65.6265V66H145.137ZM139.27 62.1548C140.325 62.1548 141.313 61.8984 142.236 61.3857C143.174 60.873 143.877 60.1846 144.346 59.3203V54.8379H141.467C139.49 54.8379 138.003 55.1821 137.007 55.8706C136.011 56.5591 135.512 57.5332 135.512 58.793C135.512 59.8184 135.849 60.6387 136.523 61.2539C137.212 61.8545 138.127 62.1548 139.27 62.1548ZM177.49 54.3545C177.49 58.0459 176.662 60.9829 175.007 63.1655C173.366 65.3481 171.103 66.4395 168.217 66.4395C165.434 66.4395 163.266 65.436 161.714 63.4292L161.45 66H156.616V32.25H161.955V44.5107C163.493 42.6943 165.566 41.7861 168.174 41.7861C171.074 41.7861 173.352 42.8628 175.007 45.0161C176.662 47.1694 177.49 50.1797 177.49 54.0469V54.3545ZM172.151 53.8931C172.151 51.3149 171.696 49.3813 170.788 48.0923C169.88 46.8032 168.562 46.1587 166.833 46.1587C164.519 46.1587 162.893 47.1694 161.955 49.1909V58.9907C162.907 61.0562 164.548 62.0889 166.877 62.0889C168.547 62.0889 169.836 61.4663 170.744 60.2212C171.653 58.9761 172.121 57.0938 172.151 54.5742V53.8931ZM216.774 58.6392L220.554 42.2256H225.761L219.279 66H214.885L209.787 49.6743L204.777 66H200.383L193.879 42.2256H199.086L202.932 58.4634L207.81 42.2256H211.831L216.774 58.6392ZM236.362 66H231.022V42.2256H236.362V66ZM230.693 36.0513C230.693 35.231 230.949 34.5498 231.462 34.0078C231.989 33.4658 232.736 33.1948 233.703 33.1948C234.67 33.1948 235.417 33.4658 235.944 34.0078C236.472 34.5498 236.735 35.231 236.735 36.0513C236.735 36.8569 236.472 37.5308 235.944 38.0728C235.417 38.6001 234.67 38.8638 233.703 38.8638C232.736 38.8638 231.989 38.6001 231.462 38.0728C230.949 37.5308 230.693 36.8569 230.693 36.0513ZM250.236 36.4468V42.2256H254.433V46.1807H250.236V59.4521C250.236 60.3604 250.412 61.0195 250.763 61.4297C251.13 61.8252 251.774 62.0229 252.697 62.0229C253.312 62.0229 253.935 61.9497 254.565 61.8032V65.9341C253.349 66.271 252.177 66.4395 251.049 66.4395C246.948 66.4395 244.897 64.1763 244.897 59.6499V46.1807H240.986V42.2256H244.897V36.4468H250.236ZM265.143 44.8184C266.886 42.7969 269.091 41.7861 271.757 41.7861C276.825 41.7861 279.396 44.6792 279.469 50.4653V66H274.13V50.6631C274.13 49.0225 273.771 47.8652 273.053 47.1914C272.35 46.5029 271.31 46.1587 269.933 46.1587C267.795 46.1587 266.198 47.1108 265.143 49.0151V66H259.804V32.25H265.143V44.8184Z" fill="#575757"/>
<g clip-path="url(#clip0)">
<path d="M327.223 35.9614C325.412 33.9963 322.926 32.9141 320.223 32.9141C318.202 32.9141 316.352 33.5528 314.723 34.8124C313.901 35.4482 313.157 36.226 312.5 37.1339C311.844 36.2263 311.099 35.4482 310.276 34.8124C308.648 33.5528 306.798 32.9141 304.777 32.9141C302.074 32.9141 299.588 33.9963 297.776 35.9614C295.986 37.9035 295 40.5567 295 43.4326C295 46.3926 296.103 49.1021 298.471 51.9599C300.59 54.5162 303.635 57.1111 307.161 60.116C308.365 61.1422 309.73 62.3054 311.147 63.5444C311.521 63.8723 312.002 64.0528 312.5 64.0528C312.998 64.0528 313.479 63.8723 313.853 63.5449C315.27 62.3057 316.635 61.1419 317.84 60.1152C321.365 57.1109 324.41 54.5162 326.529 51.9596C328.897 49.1021 330 46.3926 330 43.4323C330 40.5567 329.014 37.9035 327.223 35.9614Z" fill="#FF8181"/>
</g>
<g clip-path="url(#clip1)">
<path d="M40.8594 23.0698H24.5148C23.0111 23.0698 21.7908 21.8493 21.7908 20.3456C21.7908 18.8419 23.0111 17.6215 24.5148 17.6215H40.8594C42.3632 17.6215 43.5836 18.8419 43.5836 20.3456C43.5836 21.8493 42.3632 23.0698 40.8594 23.0698Z" fill="#EE9CE4"/>
<path d="M47.4536 83.0003H20.3597C11.8414 83.0003 5.85654 78.4428 5.47245 71.6571C5.32261 69.0066 6.01454 66.4458 7.47738 64.2557L23.0838 41.5693C24.0209 40.1992 24.5194 38.5974 24.5194 36.9356V21.7079C24.5194 20.2042 25.7398 18.9839 27.2435 18.9839C28.7472 18.9839 29.9675 20.2042 29.9675 21.7079V36.9356C29.9675 39.7061 29.1368 42.3757 27.5677 44.6558L11.9858 67.3094C11.2067 68.4781 10.828 69.8837 10.9098 71.3465C11.125 75.1167 14.8324 77.552 20.3597 77.552H47.4563C51.1311 77.552 54.2802 74.7707 54.4736 71.3492C54.558 69.8864 54.1794 68.4807 53.3758 67.2794L37.8158 44.6558C36.2467 42.3757 35.4158 39.7061 35.4158 36.9356V21.7079C35.4158 20.2042 36.6361 18.9839 38.1398 18.9839C39.6435 18.9839 40.864 20.2042 40.864 21.7079V36.9356C40.864 38.5974 41.3625 40.1992 42.3024 41.5667L57.8841 64.2203C59.3688 66.4432 60.0608 69.0038 59.9109 71.6544C59.5513 78.0178 54.0787 83.0003 47.4536 83.0003Z" fill="url(#paint0_linear)"/>
<path d="M45.8902 72.1041H19.4881C17.7556 72.1041 16.3445 70.7502 16.3445 69.0885C16.3445 68.4374 16.557 67.819 16.9601 67.296C16.9956 67.2498 17.0336 67.2034 17.0745 67.1599L24.7756 57.1188C25.1407 56.6448 25.6936 56.3533 26.293 56.3234C26.786 56.2989 27.2627 56.1845 27.6386 56.0019L29.3385 55.1548C31.3815 54.1577 34.0022 54.1549 36.0316 55.1466L37.7642 56.01C38.121 56.1817 38.5978 56.2961 39.0908 56.3234C39.6874 56.3533 40.2431 56.6448 40.6082 57.1188L48.3092 67.1571C48.35 67.2007 48.3882 67.2469 48.4236 67.2933C48.8214 67.8163 49.0338 68.4374 49.0338 69.0885C49.0338 70.7502 47.6227 72.1041 45.8902 72.1041Z" fill="#FF80DB"/>
<path d="M33.9663 7.66154C36.0819 7.66154 37.797 5.94644 37.797 3.83077C37.797 1.71509 36.0819 0 33.9663 0C31.8506 0 30.1355 1.71509 30.1355 3.83077C30.1355 5.94644 31.8506 7.66154 33.9663 7.66154Z" fill="#FF80DB"/>
<path d="M27.5815 15.8338C29.3445 15.8338 30.7738 14.4046 30.7738 12.6415C30.7738 10.8785 29.3445 9.44922 27.5815 9.44922C25.8184 9.44922 24.3892 10.8785 24.3892 12.6415C24.3892 14.4046 25.8184 15.8338 27.5815 15.8338Z" fill="#FF80DB"/>
<path d="M26.8153 69.2092C27.8731 69.2092 28.7307 68.3517 28.7307 67.2939C28.7307 66.236 27.8731 65.3785 26.8153 65.3785C25.7574 65.3785 24.8999 66.236 24.8999 67.2939C24.8999 68.3517 25.7574 69.2092 26.8153 69.2092Z" fill="white"/>
<path d="M36.5199 13.5354C37.9304 13.5354 39.0738 12.392 39.0738 10.9815C39.0738 9.57107 37.9304 8.42767 36.5199 8.42767C35.1095 8.42767 33.9661 9.57107 33.9661 10.9815C33.9661 12.392 35.1095 13.5354 36.5199 13.5354Z" fill="#FF80DB"/>
<path d="M37.797 63.2077C39.2075 63.2077 40.3509 62.0643 40.3509 60.6538C40.3509 59.2434 39.2075 58.1 37.797 58.1C36.3866 58.1 35.2432 59.2434 35.2432 60.6538C35.2432 62.0643 36.3866 63.2077 37.797 63.2077Z" fill="white"/>
</g>
<defs>
<linearGradient id="paint0_linear" x1="59.8902" y1="19.0264" x2="5.49323" y2="83.0003" gradientUnits="userSpaceOnUse">
<stop stop-color="#FFABDD"/>
<stop offset="1" stop-color="#715AFF"/>
</linearGradient>
<clipPath id="clip0">
<rect width="35" height="35" fill="white" transform="translate(295 31)"/>
</clipPath>
<clipPath id="clip1">
<rect width="65.3785" height="83" fill="white"/>
</clipPath>
</defs>
</svg>
