<svg width="602" height="100" viewBox="0 0 602 100" fill="none" xmlns="http://www.w3.org/2000/svg">
<path d="M80.207 35.2971C79.2083 34.9559 78.2025 34.6382 77.1895 34.344C77.3574 33.6604 77.5124 32.9729 77.6543 32.2815C79.9395 21.1682 78.4453 12.2151 73.3457 9.2678C68.4629 6.43968 60.4551 9.38694 52.377 16.4338C51.5827 17.1291 50.8047 17.8453 50.043 18.5823C49.5352 18.0927 49.0143 17.6135 48.4805 17.1448C40.0137 9.6096 31.5273 6.43577 26.4336 9.3928C21.5508 12.2268 20.0996 20.6428 22.1563 31.176C22.362 32.2177 22.5931 33.2548 22.8496 34.2873C21.6484 34.6291 20.4883 34.9944 19.3789 35.3811C9.46484 38.8479 3.125 44.2834 3.125 49.9201C3.125 55.7444 9.92969 61.5842 20.2676 65.1252C21.1061 65.4104 21.9525 65.6753 22.8066 65.9201C22.5293 67.0256 22.2839 68.1434 22.0703 69.2737C20.1172 79.6252 21.6406 87.842 26.5137 90.6584C31.5469 93.5666 39.9902 90.5783 48.2207 83.3713C48.8717 82.801 49.5228 82.1988 50.1738 81.5647C50.9967 82.3602 51.8431 83.1324 52.7129 83.8811C60.6816 90.7522 68.5508 93.5276 73.416 90.7033C78.4453 87.7854 80.0801 78.9572 77.957 68.217C77.7943 67.3967 77.6068 66.5595 77.3945 65.7053C77.9883 65.5295 78.5697 65.3479 79.1387 65.1604C89.8809 61.592 96.8789 55.8225 96.8789 49.926C96.875 44.2619 90.332 38.7912 80.207 35.2971ZM55.0117 19.4612C61.9316 13.4241 68.4004 11.0412 71.3496 12.7444C74.4883 14.5588 75.709 21.8752 73.7363 31.4709C73.6061 32.0959 73.4655 32.719 73.3145 33.3401C69.1848 32.4007 64.9971 31.7378 60.7793 31.3557C58.3643 27.8769 55.717 24.5654 52.8555 21.4436C53.556 20.7639 54.2734 20.1031 55.0078 19.4612H55.0117ZM30.8066 54.7365C31.6543 56.3772 32.5404 57.9976 33.4648 59.5979C34.4062 61.2307 35.3874 62.8394 36.4082 64.424C33.506 64.1085 30.622 63.6437 27.7676 63.0315C28.5957 60.3518 29.6152 57.5686 30.8066 54.7365ZM30.8066 45.2971C29.6348 42.5256 28.6426 39.799 27.8281 37.1662C30.5039 36.5666 33.3555 36.0764 36.3281 35.7053C35.332 37.26 34.3737 38.8375 33.4531 40.4377C32.5326 42.038 31.6484 43.6578 30.8008 45.2971H30.8066ZM32.9355 50.0178C34.1699 47.4436 35.4993 44.9188 36.9238 42.4436C38.347 39.9696 39.862 37.5523 41.4688 35.1916C44.2578 34.9807 47.1172 34.8694 50.0059 34.8694C52.8945 34.8694 55.7715 34.9807 58.5586 35.1936C60.1484 37.549 61.6543 39.9579 63.0762 42.4201C64.498 44.8824 65.8451 47.3954 67.1172 49.9592C65.862 52.5425 64.5182 55.0777 63.0859 57.5647C61.6654 60.0386 60.168 62.4631 58.5938 64.8381C55.8105 65.0334 52.9297 65.1408 50 65.1408C47.0703 65.1408 44.2441 65.049 41.5117 64.8713C39.8932 62.5028 38.3659 60.0751 36.9297 57.5881C35.4935 55.1011 34.1602 52.5777 32.9297 50.0178H32.9355ZM66.5527 59.5705C67.4967 57.9325 68.403 56.273 69.2715 54.592C70.462 57.2914 71.5129 60.0503 72.4199 62.8576C69.532 63.5079 66.612 64.0067 63.6719 64.3518C64.6641 62.7776 65.6243 61.1838 66.5527 59.5705ZM69.2324 45.299C68.3678 43.6519 67.4688 42.0243 66.5352 40.4162C65.6237 38.8303 64.6738 37.2639 63.6855 35.717C66.6758 36.0959 69.5449 36.5998 72.2344 37.2151C71.3697 39.9583 70.3678 42.6563 69.2324 45.299V45.299ZM50.0449 24.3127C51.9952 26.4438 53.8367 28.6719 55.5625 30.9885C51.8711 30.8127 48.1771 30.8127 44.4805 30.9885C46.3027 28.5783 48.168 26.342 50.0449 24.3127ZM28.4492 12.8635C31.5859 11.0432 38.5215 13.6448 45.832 20.1428C46.2988 20.5588 46.7695 20.9944 47.2383 21.4455C44.362 24.5669 41.696 27.8756 39.2578 31.3498C35.0493 31.729 30.8699 32.3814 26.7461 33.303C26.5078 32.3446 26.293 31.3798 26.1016 30.4084C24.334 21.3791 25.5039 14.5725 28.4492 12.8635ZM23.877 62.053C23.0957 61.8303 22.3242 61.5888 21.5625 61.3283C16.9922 59.7658 13.2168 57.7268 10.625 55.5061C8.30469 53.5158 7.12891 51.5295 7.12891 49.9201C7.12891 46.5002 12.2187 42.1369 20.707 39.178C21.7734 38.8069 22.849 38.4677 23.9336 38.1604C25.1942 42.2117 26.721 46.1754 28.5039 50.0256C26.6997 53.929 25.1541 57.9468 23.877 62.053V62.053ZM45.582 80.3479C41.9434 83.5354 38.2988 85.7951 35.0859 86.9338C32.1992 87.9553 29.9004 87.9846 28.5117 87.1819C25.5547 85.4729 24.3242 78.8733 26.002 70.0217C26.2012 68.98 26.429 67.9384 26.6855 66.8967C30.8507 67.7939 35.072 68.4067 39.3203 68.7307C41.7823 72.2231 44.4704 75.5505 47.3672 78.6916C46.7852 79.2639 46.1895 79.8147 45.582 80.3479ZM50.1562 75.8127C48.2578 73.76 46.3633 71.4885 44.5156 69.0471C46.3112 69.1174 48.1393 69.1526 50 69.1526C51.9102 69.1526 53.8008 69.1115 55.6641 69.0276C53.9446 71.3814 52.1062 73.646 50.1562 75.8127V75.8127ZM74.4766 81.3967C73.918 84.4123 72.7949 86.424 71.4063 87.2287C68.4512 88.9436 62.1328 86.7151 55.3203 80.8381C54.5391 80.1662 53.7578 79.4455 52.9629 78.6897C55.8033 75.5363 58.4284 72.1954 60.8203 68.6897C65.0921 68.3277 69.334 67.6719 73.5156 66.7268C73.707 67.5002 73.8763 68.258 74.0234 69.0002C74.9629 73.7463 75.0977 78.0393 74.4766 81.3967V81.3967ZM77.875 61.3498C77.3633 61.5197 76.8359 61.6838 76.3008 61.844C74.9896 57.7735 73.4032 53.7969 71.5527 49.9416C73.3338 46.1377 74.8581 42.2188 76.1152 38.2112C77.0742 38.4905 78.0059 38.7834 78.9023 39.094C87.5781 42.0862 92.8711 46.5158 92.8711 49.9201C92.8711 53.553 87.1543 58.2678 77.875 61.3498V61.3498Z" fill="#60DBFB"/>
<path d="M50 58.311C51.6622 58.3164 53.2886 57.8285 54.6733 56.9089C56.0581 55.9894 57.1388 54.6796 57.7786 53.1455C58.4185 51.6114 58.5887 49.9219 58.2677 48.2909C57.9468 46.66 57.1491 45.161 55.9756 43.9837C54.8022 42.8064 53.3058 42.0038 51.6759 41.6775C50.046 41.3513 48.356 41.516 46.8198 42.1508C45.2836 42.7857 43.9703 43.8621 43.0462 45.2438C42.1222 46.6255 41.6289 48.2503 41.6289 49.9126C41.6266 51.0138 41.8414 52.1047 42.2609 53.1229C42.6804 54.1411 43.2965 55.0667 44.0739 55.8466C44.8514 56.6266 45.7749 57.2457 46.7917 57.6686C47.8086 58.0914 48.8988 58.3097 50 58.311Z" fill="#60DBFB"/>
<path d="M129.615 53.377V65H124.18V33.7188H136.146C139.641 33.7188 142.413 34.6283 144.461 36.4473C146.523 38.2663 147.555 40.6725 147.555 43.666C147.555 46.7311 146.545 49.1159 144.525 50.8203C142.52 52.5247 139.706 53.377 136.082 53.377H129.615ZM129.615 49.0156H136.146C138.08 49.0156 139.555 48.5645 140.572 47.6621C141.589 46.7454 142.098 45.4277 142.098 43.709C142.098 42.0189 141.582 40.6725 140.551 39.6699C139.52 38.653 138.102 38.1302 136.297 38.1016H129.615V49.0156ZM156.965 44.2891C158.669 42.3125 160.825 41.3242 163.432 41.3242C168.387 41.3242 170.901 44.153 170.973 49.8105V65H165.752V50.0039C165.752 48.3997 165.401 47.2682 164.699 46.6094C164.012 45.9362 162.995 45.5996 161.648 45.5996C159.557 45.5996 157.996 46.5306 156.965 48.3926V65H151.744V32H156.965V44.2891ZM190.158 65C189.929 64.556 189.729 63.8327 189.557 62.8301C187.895 64.5632 185.861 65.4297 183.455 65.4297C181.12 65.4297 179.215 64.7637 177.74 63.4316C176.265 62.0996 175.527 60.4525 175.527 58.4902C175.527 56.0124 176.444 54.1146 178.277 52.7969C180.125 51.4648 182.76 50.7988 186.184 50.7988H189.385V49.2734C189.385 48.0703 189.048 47.1107 188.375 46.3945C187.702 45.6641 186.678 45.2988 185.303 45.2988C184.114 45.2988 183.14 45.5996 182.381 46.2012C181.622 46.7884 181.242 47.5404 181.242 48.457H176.021C176.021 47.1823 176.444 45.9935 177.289 44.8906C178.134 43.7734 179.28 42.8997 180.727 42.2695C182.188 41.6393 183.813 41.3242 185.604 41.3242C188.325 41.3242 190.495 42.0117 192.113 43.3867C193.732 44.7474 194.562 46.6667 194.605 49.1445V59.6289C194.605 61.7201 194.899 63.3887 195.486 64.6348V65H190.158ZM184.422 61.2402C185.453 61.2402 186.42 60.9896 187.322 60.4883C188.239 59.987 188.926 59.3138 189.385 58.4688V54.0859H186.57C184.637 54.0859 183.183 54.4225 182.209 55.0957C181.235 55.7689 180.748 56.7214 180.748 57.9531C180.748 58.9557 181.077 59.7578 181.736 60.3594C182.41 60.9466 183.305 61.2402 184.422 61.2402ZM187.322 32H193.273L187.322 38.5098H183.133L187.322 32ZM206.615 36.1035V41.7539H210.719V45.6211H206.615V58.5977C206.615 59.4857 206.787 60.1302 207.131 60.5312C207.489 60.918 208.119 61.1113 209.021 61.1113C209.623 61.1113 210.232 61.0397 210.848 60.8965V64.9355C209.659 65.265 208.513 65.4297 207.41 65.4297C203.4 65.4297 201.395 63.2168 201.395 58.791V45.6211H197.57V41.7539H201.395V36.1035H206.615ZM232.225 36.1035V41.7539H236.328V45.6211H232.225V58.5977C232.225 59.4857 232.396 60.1302 232.74 60.5312C233.098 60.918 233.729 61.1113 234.631 61.1113C235.232 61.1113 235.841 61.0397 236.457 60.8965V64.9355C235.268 65.265 234.122 65.4297 233.02 65.4297C229.009 65.4297 227.004 63.2168 227.004 58.791V45.6211H223.18V41.7539H227.004V36.1035H232.225ZM252.506 46.5234C251.818 46.4089 251.109 46.3516 250.379 46.3516C247.987 46.3516 246.376 47.2682 245.545 49.1016V65H240.324V41.7539H245.309L245.438 44.3535C246.698 42.334 248.445 41.3242 250.68 41.3242C251.424 41.3242 252.04 41.4245 252.527 41.625L252.506 46.5234ZM261.357 65H256.137V41.7539H261.357V65ZM255.814 35.7168C255.814 34.9147 256.065 34.2487 256.566 33.7188C257.082 33.1888 257.812 32.9238 258.758 32.9238C259.703 32.9238 260.434 33.1888 260.949 33.7188C261.465 34.2487 261.723 34.9147 261.723 35.7168C261.723 36.5046 261.465 37.1634 260.949 37.6934C260.434 38.209 259.703 38.4668 258.758 38.4668C257.812 38.4668 257.082 38.209 256.566 37.6934C256.065 37.1634 255.814 36.5046 255.814 35.7168ZM277.299 65.4297C273.99 65.4297 271.305 64.3913 269.242 62.3145C267.194 60.2233 266.17 57.4447 266.17 53.9785V53.334C266.17 51.0137 266.614 48.944 267.502 47.125C268.404 45.2917 269.665 43.8665 271.283 42.8496C272.902 41.8327 274.706 41.3242 276.697 41.3242C279.863 41.3242 282.305 42.334 284.023 44.3535C285.757 46.373 286.623 49.2305 286.623 52.9258V55.0312H271.434C271.591 56.9505 272.229 58.4688 273.346 59.5859C274.477 60.7031 275.895 61.2617 277.6 61.2617C279.992 61.2617 281.939 60.2949 283.443 58.3613L286.258 61.0469C285.327 62.4362 284.081 63.5176 282.52 64.291C280.973 65.0501 279.232 65.4297 277.299 65.4297ZM276.676 45.5137C275.243 45.5137 274.083 46.015 273.195 47.0176C272.322 48.0202 271.763 49.4167 271.52 51.207H281.467V50.8203C281.352 49.0729 280.887 47.7552 280.07 46.8672C279.254 45.9648 278.122 45.5137 276.676 45.5137ZM284.26 38.7676H280.113L276.268 35.2871L272.443 38.7676H268.297L274.27 33.3965H278.287L284.26 38.7676ZM282.262 35.8887L282.111 33.2031C283.014 33.1315 283.665 33.0098 284.066 32.8379C284.467 32.666 284.668 32.3724 284.668 31.957C284.668 31.069 283.744 30.625 281.896 30.625L282.047 28.3691C284.009 28.3691 285.492 28.6914 286.494 29.3359C287.497 29.9661 287.998 30.8184 287.998 31.8926C287.998 32.6803 287.733 33.3105 287.203 33.7832C286.688 34.2415 286.029 34.5208 285.227 34.6211L285.205 35.8887H282.262ZM295.539 41.7539L295.689 44.4395C297.408 42.3626 299.664 41.3242 302.457 41.3242C307.298 41.3242 309.762 44.0957 309.848 49.6387V65H304.627V49.9395C304.627 48.4642 304.305 47.3757 303.66 46.6738C303.03 45.9577 301.992 45.5996 300.545 45.5996C298.439 45.5996 296.871 46.5521 295.84 48.457V65H290.619V41.7539H295.539ZM351.828 39.8418C351.828 42.3913 351.312 44.2604 350.281 45.4492C349.264 46.6237 347.596 47.2897 345.275 47.4473V65H340.355L340.227 62.7227C338.694 64.5273 336.517 65.4297 333.695 65.4297C331.174 65.4297 329.262 64.6921 327.959 63.2168C326.67 61.7415 326.025 59.6074 326.025 56.8145V41.7539H331.246V56.75C331.246 59.7005 332.471 61.1758 334.92 61.1758C337.455 61.1758 339.167 60.2663 340.055 58.4473V41.7539H345.275V44.6758C346.307 44.5755 347.051 44.2891 347.51 43.8164C347.982 43.3438 348.255 42.5632 348.326 41.4746L348.369 39.8418H351.828ZM337.434 32.4297H343.385L337.434 38.9395H333.244L337.434 32.4297ZM358.188 41.7539L358.338 44.4395C360.057 42.3626 362.312 41.3242 365.105 41.3242C369.947 41.3242 372.41 44.0957 372.496 49.6387V65H367.275V49.9395C367.275 48.4642 366.953 47.3757 366.309 46.6738C365.678 45.9577 364.64 45.5996 363.193 45.5996C361.088 45.5996 359.52 46.5521 358.488 48.457V65H353.268V41.7539H358.188ZM376.922 53.2051C376.922 49.5957 377.767 46.7168 379.457 44.5684C381.161 42.4056 383.417 41.3242 386.225 41.3242C388.874 41.3242 390.958 42.248 392.477 44.0957L392.713 41.7539H397.418V64.291C397.418 67.3418 396.465 69.748 394.561 71.5098C392.67 73.2715 390.113 74.1523 386.891 74.1523C385.186 74.1523 383.518 73.7943 381.885 73.0781C380.266 72.3763 379.035 71.4525 378.189 70.3066L380.66 67.1699C382.264 69.0749 384.241 70.0273 386.59 70.0273C388.323 70.0273 389.691 69.5547 390.693 68.6094C391.696 67.6784 392.197 66.3034 392.197 64.4844V62.916C390.693 64.5918 388.688 65.4297 386.182 65.4297C383.46 65.4297 381.233 64.3483 379.5 62.1855C377.781 60.0228 376.922 57.0293 376.922 53.2051ZM382.121 53.6562C382.121 55.9909 382.594 57.8314 383.539 59.1777C384.499 60.5098 385.824 61.1758 387.514 61.1758C389.619 61.1758 391.18 60.2734 392.197 58.4688V48.2422C391.209 46.4805 389.662 45.5996 387.557 45.5996C385.838 45.5996 384.499 46.2799 383.539 47.6406C382.594 49.0013 382.121 51.0065 382.121 53.6562ZM412.779 53.2051C412.779 49.6243 413.61 46.7526 415.271 44.5898C416.933 42.4128 419.16 41.3242 421.953 41.3242C424.417 41.3242 426.408 42.1836 427.926 43.9023V32H433.146V65H428.42L428.162 62.5938C426.601 64.4844 424.517 65.4297 421.91 65.4297C419.189 65.4297 416.983 64.334 415.293 62.1426C413.617 59.9512 412.779 56.972 412.779 53.2051ZM418 53.6562C418 56.0195 418.451 57.8672 419.354 59.1992C420.27 60.5169 421.566 61.1758 423.242 61.1758C425.376 61.1758 426.938 60.2233 427.926 58.3184V48.3926C426.966 46.5306 425.419 45.5996 423.285 45.5996C421.595 45.5996 420.292 46.2728 419.375 47.6191C418.458 48.9512 418 50.9635 418 53.6562ZM452.676 62.7227C451.143 64.5273 448.966 65.4297 446.145 65.4297C443.624 65.4297 441.712 64.6921 440.408 63.2168C439.119 61.7415 438.475 59.6074 438.475 56.8145V41.7539H443.695V56.75C443.695 59.7005 444.92 61.1758 447.369 61.1758C449.904 61.1758 451.616 60.2663 452.504 58.4473V41.7539H457.725V65H452.805L452.676 62.7227ZM443.438 70.1777C443.438 69.4186 443.688 68.7812 444.189 68.2656C444.705 67.7643 445.436 67.5137 446.381 67.5137C447.326 67.5137 448.057 67.7643 448.572 68.2656C449.088 68.7812 449.346 69.4186 449.346 70.1777C449.346 70.9368 449.088 71.5671 448.572 72.0684C448.057 72.5697 447.326 72.8203 446.381 72.8203C445.436 72.8203 444.705 72.5697 444.189 72.0684C443.688 71.5671 443.438 70.9368 443.438 70.1777ZM467.887 41.7539L468.037 44.4395C469.756 42.3626 472.012 41.3242 474.805 41.3242C479.646 41.3242 482.109 44.0957 482.195 49.6387V65H476.975V49.9395C476.975 48.4642 476.652 47.3757 476.008 46.6738C475.378 45.9577 474.339 45.5996 472.893 45.5996C470.787 45.5996 469.219 46.5521 468.188 48.457V65H462.967V41.7539H467.887ZM486.621 53.2051C486.621 49.5957 487.466 46.7168 489.156 44.5684C490.861 42.4056 493.117 41.3242 495.924 41.3242C498.574 41.3242 500.658 42.248 502.176 44.0957L502.412 41.7539H507.117V64.291C507.117 67.3418 506.165 69.748 504.26 71.5098C502.369 73.2715 499.812 74.1523 496.59 74.1523C494.885 74.1523 493.217 73.7943 491.584 73.0781C489.965 72.3763 488.734 71.4525 487.889 70.3066L490.359 67.1699C491.964 69.0749 493.94 70.0273 496.289 70.0273C498.022 70.0273 499.39 69.5547 500.393 68.6094C501.395 67.6784 501.896 66.3034 501.896 64.4844V62.916C500.393 64.5918 498.387 65.4297 495.881 65.4297C493.16 65.4297 490.932 64.3483 489.199 62.1855C487.48 60.0228 486.621 57.0293 486.621 53.2051ZM491.82 53.6562C491.82 55.9909 492.293 57.8314 493.238 59.1777C494.198 60.5098 495.523 61.1758 497.213 61.1758C499.318 61.1758 500.88 60.2734 501.896 58.4688V48.2422C500.908 46.4805 499.361 45.5996 497.256 45.5996C495.537 45.5996 494.198 46.2799 493.238 47.6406C492.293 49.0013 491.82 51.0065 491.82 53.6562ZM543.877 57.8027L547.572 41.7539H552.664L546.326 65H542.029L537.045 49.0371L532.146 65H527.85L521.49 41.7539H526.582L530.342 57.6309L535.111 41.7539H539.043L543.877 57.8027ZM566.393 65.4297C563.084 65.4297 560.398 64.3913 558.336 62.3145C556.288 60.2233 555.264 57.4447 555.264 53.9785V53.334C555.264 51.0137 555.708 48.944 556.596 47.125C557.498 45.2917 558.758 43.8665 560.377 42.8496C561.995 41.8327 563.8 41.3242 565.791 41.3242C568.956 41.3242 571.398 42.334 573.117 44.3535C574.85 46.373 575.717 49.2305 575.717 52.9258V55.0312H560.527C560.685 56.9505 561.322 58.4688 562.439 59.5859C563.571 60.7031 564.989 61.2617 566.693 61.2617C569.085 61.2617 571.033 60.2949 572.537 58.3613L575.352 61.0469C574.421 62.4362 573.174 63.5176 571.613 64.291C570.066 65.0501 568.326 65.4297 566.393 65.4297ZM565.77 45.5137C564.337 45.5137 563.177 46.015 562.289 47.0176C561.415 48.0202 560.857 49.4167 560.613 51.207H570.561V50.8203C570.446 49.0729 569.98 47.7552 569.164 46.8672C568.348 45.9648 567.216 45.5137 565.77 45.5137ZM600.188 53.6133C600.188 57.2227 599.378 60.0944 597.76 62.2285C596.156 64.3626 593.943 65.4297 591.121 65.4297C588.4 65.4297 586.28 64.4486 584.762 62.4863L584.504 65H579.777V32H584.998V43.9883C586.502 42.2122 588.529 41.3242 591.078 41.3242C593.914 41.3242 596.141 42.377 597.76 44.4824C599.378 46.5879 600.188 49.5312 600.188 53.3125V53.6133ZM594.967 53.1621C594.967 50.6413 594.523 48.7507 593.635 47.4902C592.747 46.2298 591.458 45.5996 589.768 45.5996C587.505 45.5996 585.915 46.5879 584.998 48.5645V58.1465C585.929 60.166 587.533 61.1758 589.811 61.1758C591.443 61.1758 592.704 60.5671 593.592 59.3496C594.48 58.1322 594.938 56.2917 594.967 53.8281V53.1621Z" fill="#4B4B4B"/>
</svg>
